<svg width="21" height="21" viewBox="0 0 24 24" fill="none" xmlns="http://www.w3.org/2000/svg">
<path d="M12 11c0 3.5-.5 6.5-2 9" stroke="#424750" stroke-width="1.6" stroke-linecap="round" stroke-linejoin="round"/>
<path d="M8 20a20.6 20.6 0 0 0 2-9 2 2 0 1 1 4 0v2" stroke="#424750" stroke-width="1.6" stroke-linecap="round" stroke-linejoin="round"/>
<path d="M4.5 15.5C5.5 14 6 12.5 6 11a6 6 0 0 1 10.7-3.7" stroke="#424750" stroke-width="1.6" stroke-linecap="round" stroke-linejoin="round"/>
<path d="M18 11a6 6 0 0 1-.5 2.4" stroke="#424750" stroke-width="1.6" stroke-linecap="round" stroke-linejoin="round"/>
<path d="M2.5 11a9.5 9.5 0 0 1 3-6.9" stroke="#424750" stroke-width="1.6" stroke-linecap="round" stroke-linejoin="round"/>
<path d="M14 19c-.6-1.5-1-3-1-5.5" stroke="#424750" stroke-width="1.6" stroke-linecap="round" stroke-linejoin="round"/>
<path d="M9.5 4.5A9.5 9.5 0 0 1 21.5 11" stroke="#424750" stroke-width="1.6" stroke-linecap="round" stroke-linejoin="round"/>
</svg>
